HIERARCHY
ROOT Hips
{
    OFFSET 0.000000 0.000000 0.000000
    CHANNELS 6 Xposition Yposition Zposition Zrotation Xrotation Yrotation
    JOINT Spine
    {
        OFFSET -0.000000 7.236184 0.000000
        CHANNELS 3 Zrotation Xrotation Yrotation
        JOINT Spine1
        {
            OFFSET -0.000000 20.420147 0.000000
            CHANNELS 3 Zrotation Xrotation Yrotation
            JOINT Neck
            {
                OFFSET -0.000000 20.336288 1.848754
                CHANNELS 3 Zrotation Xrotation Yrotation
                JOINT Head
                {
                    OFFSET -0.000000 12.354461 -1.764923
                    CHANNELS 3 Zrotation Xrotation Yrotation
                    End Site
                    {
                        OFFSET -0.000000 22.061537 0.000000
                    }
                }
            }
            JOINT LeftShoulder
            {
                OFFSET 3.573296 18.396038 -0.314103
                CHANNELS 3 Zrotation Xrotation Yrotation
                JOINT LeftArm
                {
                    OFFSET 10.880760 0.000000 0.000000
                    CHANNELS 3 Zrotation Xrotation Yrotation
                    JOINT LeftForeArm
                    {
                        OFFSET 27.185530 0.000000 0.000000
                        CHANNELS 3 Zrotation Xrotation Yrotation
                        JOINT LeftHand
                        {
                            OFFSET 27.825975 0.000000 0.000000
                            CHANNELS 3 Zrotation Xrotation Yrotation
                            End Site
                            {
                                OFFSET 13.236923 0.000000 0.000000
                            }
                        }
                    }
                }
            }
            JOINT RightShoulder
            {
                OFFSET -3.474926 18.396038 -0.314103
                CHANNELS 3 Zrotation Xrotation Yrotation
                JOINT RightArm
                {
                    OFFSET -10.880760 0.000000 0.000000
                    CHANNELS 3 Zrotation Xrotation Yrotation
                    JOINT RightForeArm
                    {
                        OFFSET -27.185530 0.000000 0.000000
                        CHANNELS 3 Zrotation Xrotation Yrotation
                        JOINT RightHand
                        {
                            OFFSET -27.825975 0.000000 0.000000
                            CHANNELS 3 Zrotation Xrotation Yrotation
                            End Site
                            {
                                OFFSET -13.236923 0.000000 0.000000
                            }
                        }
                    }
                }
            }
        }
    }
    JOINT LeftUpLeg
    {
        OFFSET 8.824615 0.000000 0.000000
        CHANNELS 3 Zrotation Xrotation Yrotation
        JOINT LeftLeg
        {
            OFFSET -0.000000 -35.111282 0.000000
            CHANNELS 3 Zrotation Xrotation Yrotation
            JOINT LeftFoot
            {
                OFFSET -0.000000 -42.324711 0.000000
                CHANNELS 3 Zrotation Xrotation Yrotation
                JOINT LeftToeBase
                {
                    OFFSET -0.000000 -5.735999 13.236923
                    CHANNELS 3 Zrotation Xrotation Yrotation
                    End Site
                    {
                        OFFSET -0.000000 0.000000 3.529846
                    }
                }
            }
        }
    }
    JOINT RightUpLeg
    {
        OFFSET -8.824615 0.000000 0.000000
        CHANNELS 3 Zrotation Xrotation Yrotation
        JOINT RightLeg
        {
            OFFSET -0.000000 -35.111282 0.000000
            CHANNELS 3 Zrotation Xrotation Yrotation
            JOINT RightFoot
            {
                OFFSET -0.000000 -42.324711 0.000000
                CHANNELS 3 Zrotation Xrotation Yrotation
                JOINT RightToeBase
                {
                    OFFSET -0.000000 -5.735999 13.236923
                    CHANNELS 3 Zrotation Xrotation Yrotation
                    End Site
                    {
                        OFFSET -0.000000 0.000000 3.529846
                    }
                }
            }
        }
    }
}
MOTION
Frames:    4
Frame Time:    0.008333
-1.375868    81.121422    96.412514    -0.104159    -4.141114    -177.326553    -2.022488    -13.420446    0.411246    0.225565    4.754522    0.639954    1.423442    2.000947    -3.367396    8.833139    6.411302    -2.919840    1.541607    17.860312    -4.069872    -43.056938    49.245899    -39.716660    -3.444230    -4.274797    -18.193441    17.203650    -4.342695    3.195882    4.137179    19.614790    -2.160487    36.588238    49.676964    43.223011    1.284281    -6.404565    18.783009    -13.983557    -6.025468    -4.838716    3.747125    -3.015859    0.736371    -2.690476    7.642928    0.797255    -0.538727    -7.975680    -7.883975    -0.034061    0.300644    0.037735    -3.443608    -0.875464    3.020210    3.297282    4.860249    5.341471    -2.068736    -6.938010    -12.692846    -0.490415    0.703258    0.529913    
-1.365099    81.121429    96.397484    -0.102731    -4.154811    -177.318176    -2.027482    -13.434055    0.413571    0.212772    4.722364    0.643673    1.405435    1.978117    -3.416889    8.920959    6.335555    -2.955738    1.540748    17.860191    -4.058847    -43.072060    49.254642    -39.706547    -3.447080    -4.264394    -18.185024    17.194239    -4.333943    3.187992    4.140218    19.605675    -2.172415    36.588680    49.680874    43.239002    1.278374    -6.402771    18.774136    -13.979049    -6.023000    -4.837008    3.755445    -3.014986    0.737770    -2.689645    7.632573    0.795509    -0.547154    -7.978792    -7.891556    -0.033779    0.301552    0.037423    -3.435787    -0.861584    3.019253    3.298079    4.831507    5.334007    -2.075234    -6.935708    -12.690126    -0.490425    0.702308    0.529925    
-1.354287    81.121407    96.382301    -0.100532    -4.167544    -177.309952    -2.031907    -13.447136    0.415882    0.200479    4.690553    0.647286    1.387517    1.956405    -3.465947    9.007925    6.259892    -2.991146    1.539676    17.860147    -4.048025    -43.087322    49.262985    -39.696148    -3.450067    -4.253977    -18.176805    17.185247    -4.325192    3.180093    4.143180    19.596693    -2.184455    36.589180    49.684597    43.254723    1.272322    -6.401093    18.765812    -13.974909    -6.020617    -4.835303    3.764832    -3.013115    0.739516    -2.689132    7.622468    0.792935    -0.555477    -7.982184    -7.898546    -0.033572    0.302434    0.037193    -3.426911    -0.846943    3.018491    3.298507    4.803255    5.326613    -2.079683    -6.933895    -12.687236    -0.490278    0.700875    0.529767    
-1.343837    81.121391    96.367325    -0.099374    -4.180973    -177.302124    -2.037473    -13.461449    0.417946    0.188611    4.659548    0.650772    1.370232    1.935816    -3.513846    9.092349    6.186007    -3.025671    1.538703    17.860273    -4.037438    -43.102573    49.270657    -39.685810    -3.453198    -4.243668    -18.168959    17.176867    -4.316570    3.172205    4.146035    19.587908    -2.196352    36.589573    49.688049    43.269928    1.265995    -6.399847    18.758793    -13.971261    -6.018591    -4.833804    3.772614    -3.012282    0.740900    -2.688178    7.612878    0.790765    -0.563757    -7.985646    -7.905220    -0.033461    0.303107    0.037070    -3.419521    -0.834083    3.017237    3.299276    4.776641    5.320419    -2.085613    -6.932301    -12.685143    -0.490221    0.699660    0.529706    
